<?xml version="1.0" encoding="UTF-8" standalone="no"?>
<svg
   width="100px"
   height="100px"
   viewBox="0 0 100 100"
   version="1.1"
   id="svg18"
   sodipodi:docname="icon.svg"
   inkscape:version="1.3.1 (9b9bdc1480, 2023-11-25, custom)"
   xml:space="preserve"
   xmlns:inkscape="http://www.inkscape.org/namespaces/inkscape"
   xmlns:sodipodi="http://sodipodi.sourceforge.net/DTD/sodipodi-0.dtd"
   xmlns:xlink="http://www.w3.org/1999/xlink"
   xmlns="http://www.w3.org/2000/svg"
   xmlns:svg="http://www.w3.org/2000/svg"
   xmlns:rdf="http://www.w3.org/1999/02/22-rdf-syntax-ns#"
   xmlns:cc="http://creativecommons.org/ns#"
   xmlns:dc="http://purl.org/dc/elements/1.1/"><metadata
     id="metadata22"><rdf:RDF><cc:Work
         rdf:about=""><dc:format>image/svg+xml</dc:format><dc:type
           rdf:resource="http://purl.org/dc/dcmitype/StillImage" /><dc:title>eclispe-che</dc:title></cc:Work></rdf:RDF></metadata><sodipodi:namedview
     pagecolor="#ffffff"
     bordercolor="#666666"
     borderopacity="1"
     objecttolerance="10"
     gridtolerance="10"
     guidetolerance="10"
     inkscape:pageopacity="0"
     inkscape:pageshadow="2"
     inkscape:window-width="1210"
     inkscape:window-height="736"
     id="namedview20"
     showgrid="false"
     inkscape:pagecheckerboard="true"
     inkscape:zoom="4.4049803"
     inkscape:cx="60.159179"
     inkscape:cy="44.949123"
     inkscape:window-x="0"
     inkscape:window-y="0"
     inkscape:window-maximized="1"
     inkscape:current-layer="layer1"
     inkscape:showpageshadow="2"
     inkscape:deskcolor="#d1d1d1" /><!-- Generator: Sketch 45.2 (43514) - http://www.bohemiancoding.com/sketch --><title
     id="title2">eclispe-che</title><desc
     id="desc4">Created with Sketch.</desc><defs
     id="defs7"><path
       d="M50.0004412,4.04252804e-14 C22.3871247,4.04252804e-14 0,22.3848726 0,49.9995588 C0,77.6133626 22.3871247,100 50.0004412,100 C77.6137577,100 100,77.6133626 100,49.9995588 C100,22.3848726 77.6128753,3.55271368e-14 50.0004412,4.04252804e-14 Z"
       id="path-1" /></defs><g
     inkscape:groupmode="layer"
     id="layer1"
     inkscape:label="BACKGROUND"><g
       style="fill:#ffffff;fill-opacity:1;fill-rule:evenodd;stroke:none;stroke-width:1;stroke-opacity:1"
       id="Page-1"><g
         id="eclispe-che"
         style="fill:#ffffff;fill-opacity:1;stroke:none;stroke-opacity:1"><g
           id="path3023-path"
           style="fill:#ffffff;fill-opacity:1;stroke:none;stroke-opacity:1"><use
             xlink:href="#path-1"
             id="use9"
             style="fill:#ffffff;fill-opacity:1;fill-rule:evenodd;stroke:none;stroke-opacity:1"
             x="0"
             y="0"
             width="100%"
             height="100%" /><path
             d="M 50.000441,0.5 C 22.662621,0.5 0.5,22.661661 0.5,49.999559 0.5,77.337051 22.663098,99.5 50.000441,99.5 77.337613,99.5 99.5,77.337222 99.5,49.999559 99.5,22.661796 77.337514,0.5 50.000441,0.5 Z"
             id="path11"
             style="fill:#ffffff;fill-opacity:1;stroke:none;stroke-width:1;stroke-opacity:1"
             inkscape:connector-curvature="0" /></g></g></g><g
       style="fill:none"
       id="g1"
       transform="matrix(0.50789591,0,0,0.48488636,-15.098395,-11.827108)"><path
         fill-rule="evenodd"
         clip-rule="evenodd"
         d="m 104.68,75.3424 c 14.17,-15.9202 37.635,-20.5904 56.926,-11.401 25.631,12.2107 34.981,43.3156 21.027,67.3096 l -31.392,53.917 c -1.755,3.013 -4.641,5.211 -8.027,6.112 -3.385,0.901 -6.992,0.431 -10.028,-1.306 l 38.006,-65.289 c 10.124,-17.414 3.352,-39.9865 -15.23,-48.874 -13.943,-6.6681 -30.988,-3.337 -41.288,8.1307 -5.681,6.2954 -8.871,14.4233 -8.978,22.8763 -0.106,8.453 2.878,16.658 8.4,23.092 0.992,1.155 2.06,2.244 3.196,3.259 l -22.1873,38.183 c -0.8677,1.492 -2.0229,2.801 -3.3998,3.85 -1.3768,1.05 -2.9483,1.819 -4.6247,2.266 -1.6764,0.446 -3.4249,0.56 -5.1457,0.335 -1.7207,-0.225 -3.38,-0.784 -4.8832,-1.646 l 24.0867,-41.453 c -3.4596,-4.953 -5.9442,-10.512 -7.3226,-16.383 l -14.7601,25.453 c -1.7546,3.013 -4.6414,5.211 -8.0266,6.112 -3.3852,0.901 -6.9921,0.431 -10.0287,-1.307 L 99.1698,82.9241 c 1.5892,-2.6962 3.4342,-5.235 5.5102,-7.5817 z m 44.055,20.8983 c 9.193,5.2723 12.368,16.9963 7.049,26.1213 l -36.602,62.798 c -1.755,3.013 -4.642,5.211 -8.027,6.112 -3.385,0.901 -6.992,0.432 -10.029,-1.306 L 135.112,131.5 c -2.726,-0.57 -5.296,-1.721 -7.532,-3.373 -2.235,-1.652 -4.083,-3.767 -5.415,-6.197 -1.332,-2.431 -2.118,-5.12 -2.302,-7.881 -0.184,-2.761 0.238,-5.529 1.236,-8.113 0.999,-2.583 2.55,-4.921 4.546,-6.8517 1.997,-1.9304 4.392,-3.4075 7.019,-4.3294 2.628,-0.9218 5.425,-1.2663 8.2,-1.0098 2.775,0.2565 5.46,1.108 7.871,2.4956 z m -13.313,11.8023 c -0.629,0.479 -1.157,1.077 -1.553,1.759 h -0.002 c -0.597,1.028 -0.874,2.208 -0.796,3.391 0.078,1.184 0.508,2.318 1.235,3.259 0.728,0.941 1.719,1.646 2.851,2.028 1.131,0.381 2.35,0.42 3.504,0.113 1.154,-0.307 2.19,-0.947 2.977,-1.838 0.788,-0.892 1.291,-1.996 1.447,-3.172 0.156,-1.176 -0.043,-2.371 -0.571,-3.435 -0.528,-1.064 -1.362,-1.949 -2.397,-2.542 -0.686,-0.393 -1.445,-0.649 -2.231,-0.752 -0.786,-0.103 -1.585,-0.051 -2.351,0.153 -0.766,0.204 -1.484,0.556 -2.113,1.036 z"
         fill="#615eff"
         id="path1" /></g></g><g
     inkscape:groupmode="layer"
     id="layer2"
     inkscape:label="PLACE LOGO HERE" /></svg>
